<svg width="32" height="32" viewBox="0 0 32 32" fill="none" xmlns="http://www.w3.org/2000/svg">
<g clip-path="url(#clip0_494_6099)">
<path d="M7.36877 10.5938C5.42165 10.5938 3.83752 12.1779 3.83752 14.125C3.83752 16.0721 5.42165 17.6562 7.36877 17.6562C9.3159 17.6562 10.9 16.0721 10.9 14.125C10.9 12.1779 9.31596 10.5938 7.36877 10.5938V10.5938ZM7.36877 16.4062C6.1109 16.4062 5.08752 15.3829 5.08752 14.125C5.08752 12.8671 6.1109 11.8437 7.36877 11.8437C8.62665 11.8437 9.65002 12.8671 9.65002 14.125C9.65002 15.3829 8.62665 16.4062 7.36877 16.4062V16.4062Z" fill="black"/>
<path d="M31.375 30.0393H28.8803V23.8525C28.8803 23.5074 28.6005 23.2275 28.2553 23.2275C27.9101 23.2275 27.6303 23.5074 27.6303 23.8525V26.1498H23.4013L20.2026 19.5739C19.8099 18.6194 18.8566 17.9797 17.8224 17.9797H14.7377V6.59717C14.7377 6.40461 14.6489 6.22286 14.4971 6.10442L7.75331 0.843172C7.52738 0.666859 7.21037 0.666859 6.98444 0.843172L0.240562 6.10442C0.08875 6.22286 0 6.40467 0 6.59717V30.6642C0 31.0094 0.279813 31.2892 0.625 31.2892H31.375C31.7202 31.2892 32 31.0094 32 30.6642C32 30.319 31.7202 30.0393 31.375 30.0393V30.0393ZM1.25 9.23704H13.4877V19.0132H1.25V9.23704ZM14.7377 23.1192H16.1466L19.9535 30.0393H14.7377V23.1192ZM1.25 6.90229L7.36881 2.12867L13.4876 6.90229V7.98704H1.25V6.90229ZM5.08756 30.0393V26.508C5.08756 25.2502 6.11094 24.2268 7.36881 24.2268C8.62669 24.2268 9.65006 25.2502 9.65006 26.508V30.0393H5.08756ZM10.9001 30.0393V26.508C10.9001 24.5609 9.31594 22.9768 7.36881 22.9768C5.42169 22.9768 3.83756 24.5609 3.83756 26.508V30.0393H1.25V20.2632H13.4877V30.0392H10.9001V30.0393ZM21.3802 30.0393L17.0637 22.1929C16.9539 21.9932 16.7441 21.8692 16.5161 21.8692H14.7377V19.2297H17.8224C18.3585 19.2297 18.8523 19.5636 19.0512 20.0605C19.0568 20.0745 19.0629 20.0882 19.0694 20.1017L22.4483 27.0481C22.5529 27.2632 22.7712 27.3997 23.0104 27.3997H27.6304V30.0392H21.3802V30.0393Z" fill="black"/>
</g>
<defs>
<clipPath id="clip0_494_6099">
<rect width="32" height="32" fill="white"/>
</clipPath>
</defs>
</svg>
