<svg width="32" height="32" viewBox="0 0 32 32" fill="none" xmlns="http://www.w3.org/2000/svg">
<path d="M31.375 29.3849H29.0272C29.1668 29.0954 29.2451 28.7709 29.2451 28.4283C29.2451 27.8094 28.9888 27.2493 28.5767 26.8485C28.9888 26.4474 29.2451 25.8869 29.2451 25.2671C29.2451 24.1934 28.4736 23.2965 27.4557 23.1017V12.9548H27.8771C28.2222 12.9548 28.5021 12.675 28.5021 12.3298C28.5021 11.9846 28.2222 11.7048 27.8771 11.7048H26.9919L16.5881 5.95455V5.69986H20.227C20.5721 5.69986 20.852 5.42005 20.852 5.07486V1.99023C20.852 1.64505 20.5721 1.36523 20.227 1.36523H15.9631C15.618 1.36523 15.3381 1.64505 15.3381 1.99023V5.95455L4.93431 11.7048H4.04919C3.70406 11.7048 3.42419 11.9846 3.42419 12.3298C3.42419 12.675 3.70406 12.9548 4.04919 12.9548H4.4705V23.1017C3.45275 23.2965 2.68119 24.1936 2.68119 25.2689C2.68119 25.8878 2.9375 26.4479 3.34956 26.8487C2.9375 27.2498 2.68119 27.8104 2.68119 28.4302C2.68119 28.772 2.75938 29.0959 2.89881 29.3849H0.625C0.279875 29.3849 0 29.6647 0 30.0099C0 30.3551 0.279875 30.6349 0.625 30.6349H31.375C31.7201 30.6349 32 30.3551 32 30.0099C32 29.6647 31.7201 29.3849 31.375 29.3849V29.3849ZM27.9951 25.269C27.9951 25.7954 27.5668 26.2237 27.0404 26.2237H20.3296V24.3125H27.0404C27.5668 24.3125 27.9951 24.7407 27.9951 25.269V25.269ZM11.5968 20.7532V23.0624H5.7205V12.9548H26.2057V23.0624H20.3296V20.7532C20.3296 18.3456 18.3708 16.3868 15.9631 16.3868C13.5555 16.3868 11.5968 18.3456 11.5968 20.7532V20.7532ZM16.5881 2.61523H19.602V4.44986H16.5881V2.61523ZM15.9631 7.0373L24.4079 11.7049H7.51831L15.9631 7.0373ZM3.93119 25.2671C3.93119 24.7407 4.3595 24.3124 4.88581 24.3124H11.5967V26.2236H4.88588C4.3595 26.2237 3.93119 25.7954 3.93119 25.2671V25.2671ZM3.93119 28.4284C3.93119 27.902 4.3595 27.4737 4.88581 27.4737H11.5967V29.3849H4.88588C4.3595 29.3849 3.93119 28.9566 3.93119 28.4284V28.4284ZM12.8468 20.7532C12.8468 19.0348 14.2448 17.6368 15.9631 17.6368C17.6816 17.6368 19.0796 19.0348 19.0796 20.7532V29.3849H12.8467V20.7532H12.8468ZM20.3296 29.3849V27.4736H27.0404C27.5668 27.4736 27.9951 27.9019 27.9951 28.4302C27.9951 28.9566 27.5667 29.3849 27.0404 29.3849H20.3296Z" fill="black"/>
</svg>
