<svg width="32" height="32" viewBox="0 0 32 32" fill="none" xmlns="http://www.w3.org/2000/svg">
<path d="M31.9583 11.15C31.7514 8.92832 30.7897 6.83348 29.2502 5.2512C25.7678 1.52149 19.5027 1.49247 15.9879 5.18822C12.4725 1.49266 6.20799 1.52137 2.72546 5.25133C-1.22447 9.19088 -0.83281 16.1332 3.58696 19.6057L15.5919 29.4232C15.8222 29.6116 16.1534 29.6116 16.3837 29.4232L28.3886 19.6057C30.924 17.5324 32.2584 14.3715 31.9583 11.15V11.15ZM27.5968 18.6374L15.9878 28.1311L4.37879 18.6374C0.522175 15.6077 0.179989 9.5589 3.62199 6.12353C6.66026 2.87047 12.115 2.8706 15.1532 6.12353L15.5396 6.52069C15.7733 6.77093 16.2024 6.77093 16.4361 6.52069L16.8226 6.12353C19.8607 2.87041 25.3156 2.8706 28.3537 6.12353C31.796 9.55946 31.4532 15.6076 27.5968 18.6374V18.6374Z" fill="black"/>
<path d="M16.0964 13.8398C12.6887 13.8398 9.91614 16.6123 9.91614 20.0201C9.91614 20.7831 10.2407 21.5144 10.8068 22.0261C11.3723 22.5384 12.138 22.7877 12.8922 22.7104L15.9501 22.4013C16.0473 22.3915 16.1457 22.3915 16.2427 22.4013L19.3006 22.7104C20.0593 22.7874 20.8199 22.5377 21.386 22.026C21.9521 21.5143 22.2767 20.7831 22.2767 20.0201C22.2767 16.6124 19.5042 13.8398 16.0964 13.8398V13.8398ZM20.5471 21.0981C20.2385 21.3772 19.8408 21.5079 19.4264 21.466L16.3684 21.1568C16.1879 21.1386 16.0049 21.1386 15.8244 21.1568L12.7664 21.466C12.3526 21.5079 11.9544 21.3771 11.6457 21.0981C11.337 20.8191 11.167 20.4363 11.167 20.0202C11.167 17.3021 13.3783 15.0908 16.0964 15.0908C18.8145 15.0908 21.0258 17.3021 21.0258 20.0202C21.0258 20.4363 20.8558 20.8191 20.5471 21.0981V21.0981Z" fill="black"/>
<path d="M23.0269 11.7983C21.8325 11.7983 20.8607 12.77 20.8607 13.9645C20.9797 16.8382 25.0745 16.8374 25.1931 13.9645C25.1931 12.77 24.2214 11.7983 23.0269 11.7983ZM23.0269 14.8797C22.5222 14.8797 22.1116 14.4692 22.1116 13.9644C22.1619 12.7503 23.892 12.7506 23.9421 13.9644C23.9421 14.4692 23.5316 14.8797 23.0269 14.8797Z" fill="black"/>
<path d="M11.1148 13.9645C11.1148 12.77 10.1431 11.7983 8.94863 11.7983C6.07492 11.9173 6.07586 16.0121 8.94863 16.1307C10.1431 16.1306 11.1148 15.1588 11.1148 13.9645V13.9645ZM8.9487 14.8797C8.44408 14.8797 8.03347 14.4692 8.03347 13.9644C8.08376 12.7502 9.81389 12.7507 9.86399 13.9644C9.86392 14.4692 9.45338 14.8797 8.9487 14.8797V14.8797Z" fill="black"/>
<path d="M18.9203 12.7019C20.3028 12.7019 21.4277 11.5771 21.4277 10.1946C21.2899 6.86827 16.5503 6.86921 16.4131 10.1946C16.4131 11.5771 17.5379 12.7019 18.9203 12.7019ZM18.9203 8.93815C19.6131 8.93815 20.1768 9.50181 20.1768 10.1946C20.1077 11.8613 17.7328 11.8609 17.664 10.1946C17.664 9.50181 18.2276 8.93815 18.9203 8.93815Z" fill="black"/>
<path d="M13.0676 12.7019C14.4501 12.7019 15.5749 11.5771 15.5749 10.1946C15.4372 6.86827 10.6975 6.86921 10.5603 10.1946C10.5603 11.5771 11.6851 12.7019 13.0676 12.7019V12.7019ZM13.0676 8.93815C13.7604 8.93815 14.324 9.50181 14.324 10.1946C14.255 11.8613 11.88 11.8608 11.8112 10.1946C11.8112 9.50181 12.3749 8.93815 13.0676 8.93815V8.93815Z" fill="black"/>
</svg>
