<svg width="32" height="32" viewBox="0 0 32 32" fill="none" xmlns="http://www.w3.org/2000/svg">
<g clip-path="url(#clip0_494_6114)">
<path d="M31.0187 15.5722C31.1253 15.6462 31.2499 15.6837 31.3751 15.6837C31.7186 15.6837 32 15.405 32 15.0587V11.2933C32 11.0885 31.8996 10.8966 31.7313 10.7798L16.3563 0.111516C16.1421 -0.0371719 15.8579 -0.0371719 15.6438 0.111516L0.26875 10.7798C0.100375 10.8966 0 11.0885 0 11.2933V15.0587C0 15.2913 0.129125 15.5046 0.33525 15.6125C0.541375 15.7203 0.79025 15.7048 0.981313 15.5721L2.51019 14.5113V30.75H0.625C0.279813 30.75 0 31.0298 0 31.375C0 31.7201 0.279813 32 0.625 32H31.375C31.7202 32 32 31.7201 32 31.375C32 31.0298 31.7202 30.75 31.375 30.75H29.4898V14.5114L31.0187 15.5722ZM1.25 11.6204L16 1.38577L30.75 11.6204V13.8643C30.0706 13.393 17.1907 4.45583 16.3563 3.87683C16.1421 3.72814 15.8579 3.72814 15.6438 3.87683C15.1484 4.22045 2.0805 13.2881 1.25 13.8643V11.6204ZM9.86469 9.4082H22.1353L23.9513 10.6683H8.04862L9.86469 9.4082ZM11.6662 8.1582L16 5.15108L20.3338 8.1582H11.6662ZM18.8216 20.7092C18.8216 20.0074 19.3903 19.449 20.0791 19.449C20.7671 19.449 21.3367 20.0065 21.3367 20.7092H18.8216ZM20.0791 18.199C18.6999 18.199 17.5715 19.3193 17.5715 20.7092H7.89962L9.06756 15.4153C9.19375 14.8436 9.71025 14.4286 10.2957 14.4286H21.7042C22.2897 14.4286 22.8062 14.8436 22.9323 15.4153L24.1003 20.7092H22.5866C22.5867 19.3189 21.458 18.199 20.0791 18.199ZM7.52806 21.9592H24.4719C25.1654 21.9592 25.7296 22.5233 25.7296 23.2168V28.2398H6.27044V23.2168C6.27044 22.5233 6.83462 21.9592 7.52806 21.9592V21.9592ZM20.0816 29.4898V30.75H11.9184V29.4898H20.0816ZM21.3316 29.4898H23.8469V30.75H21.3316V29.4898ZM10.6684 29.4898V30.75H8.15306V29.4898H10.6684ZM28.2398 30.75H25.0969V29.4898H26.3546C26.6998 29.4898 26.9796 29.2099 26.9796 28.8648V23.2168C26.9796 22.1702 26.3348 21.2717 25.4217 20.8966L24.153 15.146C23.9015 14.006 22.8716 13.1786 21.7042 13.1786H10.2957C9.12837 13.1786 8.0985 14.006 7.84694 15.146L6.57825 20.8966C5.66519 21.2717 5.02037 22.1702 5.02037 23.2168V28.8648C5.02037 29.2099 5.30019 29.4898 5.64537 29.4898H6.903V30.75H3.76019V13.644L6.24713 11.9184H25.7528L28.2398 13.644V30.75Z" fill="black"/>
<path d="M22.5894 26.9795C23.626 26.9795 24.4695 26.1361 24.4695 25.0994C24.4695 24.0627 23.626 23.2192 22.5894 23.2192C21.5527 23.2192 20.7092 24.0627 20.7092 25.0994C20.7092 26.1361 21.5526 26.9795 22.5894 26.9795ZM22.5894 24.4692C22.9368 24.4692 23.2195 24.7519 23.2195 25.0994C23.2195 25.4469 22.9369 25.7295 22.5894 25.7295C22.2419 25.7295 21.9592 25.4469 21.9592 25.0994C21.9592 24.7519 22.2419 24.4692 22.5894 24.4692Z" fill="black"/>
<path d="M9.41064 26.9795C10.4473 26.9795 11.2908 26.1361 11.2908 25.0994C11.2908 24.0627 10.4473 23.2192 9.41064 23.2192C8.37396 23.2192 7.53052 24.0627 7.53052 25.0994C7.53058 26.1361 8.37396 26.9795 9.41064 26.9795ZM9.41064 24.4692C9.75808 24.4692 10.0408 24.7519 10.0408 25.0994C10.0408 25.4469 9.75814 25.7295 9.41064 25.7295C9.06321 25.7295 8.78052 25.4469 8.78052 25.0994C8.78052 24.7519 9.06321 24.4692 9.41064 24.4692Z" fill="black"/>
<path d="M13.176 24.4692H18.824C19.1692 24.4692 19.449 24.1894 19.449 23.8442C19.449 23.4991 19.1692 23.2192 18.824 23.2192H13.176C12.8308 23.2192 12.551 23.4991 12.551 23.8442C12.551 24.1894 12.8308 24.4692 13.176 24.4692V24.4692Z" fill="black"/>
<path d="M13.176 26.9795H18.824C19.1692 26.9795 19.449 26.6996 19.449 26.3545C19.449 26.0094 19.1692 25.7295 18.824 25.7295H13.176C12.8308 25.7295 12.551 26.0094 12.551 26.3545C12.551 26.6996 12.8308 26.9795 13.176 26.9795V26.9795Z" fill="black"/>
</g>
<defs>
<clipPath id="clip0_494_6114">
<rect width="32" height="32" fill="white"/>
</clipPath>
</defs>
</svg>
