<svg width="32" height="32" viewBox="0 0 32 32" fill="none" xmlns="http://www.w3.org/2000/svg">
<g clip-path="url(#clip0_494_6055)">
<path d="M31.375 14.049H29.4919V11.9457C29.4919 11.2477 28.9241 10.6798 28.2261 10.6798H26.3376V10.2232C26.3376 9.33307 25.6134 8.60889 24.7232 8.60889H21.7099C20.8198 8.60889 20.0956 9.33307 20.0956 10.2232V14.049H11.9044V10.2232C11.9044 9.33307 11.1803 8.60889 10.2901 8.60889H7.27675C6.38656 8.60889 5.66237 9.33307 5.66237 10.2232V10.6798H3.774C3.076 10.6798 2.50819 11.2477 2.50819 11.9457V14.049H0.625C0.279813 14.049 0 14.3289 0 14.674V18.0251C0 18.3702 0.279813 18.6501 0.625 18.6501H2.50813V20.0539C2.50813 20.7519 3.07594 21.3198 3.77394 21.3198H5.66237V21.7764C5.66237 22.6666 6.38656 23.3908 7.27675 23.3908H10.2901C11.1803 23.3908 11.9044 22.6666 11.9044 21.7764V18.6501H20.0956V21.7764C20.0956 22.6666 20.8198 23.3908 21.71 23.3908H24.7233C25.6135 23.3908 26.3377 22.6666 26.3377 21.7764V21.3198H28.2261C28.9241 21.3198 29.4919 20.7519 29.4919 20.0539V18.6501H31.375C31.7202 18.6501 32 18.3702 32 18.0251V14.674C32 14.3289 31.7202 14.049 31.375 14.049ZM1.25 17.4001V15.299H2.50813V17.4001H1.25ZM3.774 20.0698C3.76525 20.0698 3.75819 20.0627 3.75819 20.0539V11.9457C3.75819 11.9369 3.76531 11.9298 3.774 11.9298H5.66244V20.0698H3.774ZM10.6544 21.7764C10.6544 21.9773 10.491 22.1408 10.2901 22.1408H7.27675C7.07588 22.1408 6.91237 21.9773 6.91237 21.7764V10.2232C6.91237 10.0223 7.07581 9.85889 7.27675 9.85889H10.2901C10.4909 9.85889 10.6544 10.0223 10.6544 10.2232V21.7764ZM11.9044 17.4001V15.299H20.0956V17.4001H11.9044ZM25.0876 21.7764C25.0876 21.9773 24.9241 22.1408 24.7232 22.1408H21.7099C21.509 22.1408 21.3455 21.9773 21.3455 21.7764V10.2232C21.3455 10.0223 21.5089 9.85889 21.7099 9.85889H24.7232C24.9241 9.85889 25.0876 10.0223 25.0876 10.2232V21.7764ZM28.2419 20.0539C28.2419 20.0627 28.2348 20.0698 28.2261 20.0698H26.3376V11.9298H28.2261C28.2348 11.9298 28.2419 11.9369 28.2419 11.9457V20.0539ZM30.75 17.4001H29.4919V15.299H30.75V17.4001Z" fill="black"/>
</g>
<defs>
<clipPath id="clip0_494_6055">
<rect width="32" height="32" fill="white"/>
</clipPath>
</defs>
</svg>
