<svg width="32" height="20" viewBox="0 0 32 20" fill="none" xmlns="http://www.w3.org/2000/svg">
<path d="M31.9944 13.4261V1.75697C31.9944 1.41184 31.7145 1.13196 31.3694 1.13196H19.2558V0.821777C19.2558 0.476652 18.9759 0.196777 18.6308 0.196777C18.2856 0.196777 18.0058 0.476652 18.0058 0.821777V1.13196H13.9943V0.821777C13.9943 0.476652 13.7144 0.196777 13.3693 0.196777C13.0242 0.196777 12.7443 0.476652 12.7443 0.821777V1.13196H0.630625C0.2855 1.13196 0.005625 1.41184 0.005625 1.75697V13.4261C0.0019375 13.4536 0 13.4816 0 13.51V19.1781C0 19.5232 0.279875 19.8031 0.625 19.8031H31.375C31.7201 19.8031 32 19.5232 32 19.1781V13.51C32 13.4816 31.9981 13.4536 31.9944 13.4261ZM1.25563 11.8519C1.59131 12.0063 1.96069 12.0902 2.34013 12.0902C2.97413 12.0902 3.57981 11.8559 4.04763 11.4502C4.51531 11.8558 5.12113 12.0902 5.75506 12.0902C6.389 12.0902 6.99481 11.8558 7.4625 11.4502C7.93031 11.8559 8.53606 12.0902 9.17 12.0902C9.80394 12.0902 10.4097 11.8559 10.8775 11.4502C11.3452 11.8558 11.951 12.0902 12.5849 12.0902C13.2189 12.0902 13.8246 11.8559 14.2924 11.4502C14.7601 11.8558 15.3659 12.0902 15.9999 12.0902C16.6338 12.0902 17.2396 11.8559 17.7074 11.4502C18.1751 11.8558 18.7809 12.0902 19.4148 12.0902C20.0487 12.0902 20.6546 11.8558 21.1222 11.4502C21.5901 11.8559 22.1958 12.0902 22.8298 12.0902C23.4637 12.0902 24.0694 11.8559 24.5373 11.4502C25.0049 11.8558 25.6108 12.0902 26.2447 12.0902C26.8786 12.0902 27.4844 11.8559 27.9522 11.4502C28.4199 11.8558 29.0257 12.0902 29.6596 12.0902C30.039 12.0902 30.4084 12.0062 30.7441 11.8519V13.3168C30.4905 13.656 30.0874 13.8615 29.6596 13.8615C29.1813 13.8615 28.7337 13.6045 28.4916 13.1909C28.3794 12.9995 28.1742 12.8817 27.9522 12.8817C27.7302 12.8817 27.525 12.9994 27.4128 13.1909C27.1706 13.6045 26.723 13.8615 26.2447 13.8615C25.7664 13.8615 25.3188 13.6045 25.0766 13.1909C24.9645 12.9995 24.7593 12.8817 24.5373 12.8817C24.3153 12.8817 24.1101 12.9994 23.9979 13.1909C23.7557 13.6045 23.3081 13.8615 22.8298 13.8615C22.3514 13.8615 21.9038 13.6045 21.6616 13.1909C21.5494 12.9994 21.3442 12.8817 21.1222 12.8817C20.9002 12.8817 20.695 12.9995 20.5829 13.1909C20.3407 13.6045 19.8931 13.8615 19.4148 13.8615C18.9365 13.8615 18.4889 13.6045 18.2467 13.1909C18.1346 12.9995 17.9294 12.8817 17.7074 12.8817C17.4854 12.8817 17.2802 12.9994 17.168 13.1909C16.9258 13.6045 16.4782 13.8615 15.9999 13.8615C15.5216 13.8615 15.0739 13.6045 14.8318 13.1909C14.7197 12.9995 14.5144 12.8817 14.2924 12.8817C14.0705 12.8817 13.8652 12.9994 13.7531 13.1909C13.5109 13.6045 13.0632 13.8615 12.5849 13.8615C12.1066 13.8615 11.659 13.6045 11.4169 13.1909C11.3047 12.9995 11.0995 12.8817 10.8775 12.8817C10.6556 12.8817 10.4503 12.9994 10.3381 13.1909C10.0959 13.6045 9.64831 13.8615 9.17 13.8615C8.69169 13.8615 8.24406 13.6045 8.00187 13.1909C7.88969 12.9994 7.68444 12.8817 7.4625 12.8817C7.2405 12.8817 7.03525 12.9995 6.92312 13.1909C6.681 13.6045 6.23338 13.8615 5.75506 13.8615C5.27675 13.8615 4.82912 13.6045 4.587 13.1909C4.47487 12.9995 4.26963 12.8817 4.04763 12.8817C3.82569 12.8817 3.62044 12.9994 3.50825 13.1909C3.26606 13.6045 2.81844 13.8615 2.34013 13.8615C1.91244 13.8615 1.50931 13.656 1.25563 13.3168V11.8519V11.8519ZM13.9943 8.19553H18.0058V9.93622C17.9157 9.88734 17.8135 9.86047 17.7076 9.86047C17.4856 9.86047 17.2804 9.97815 17.1682 10.1697C16.926 10.5833 16.4784 10.8402 16.0001 10.8402C15.5218 10.8402 15.0741 10.5833 14.832 10.1697C14.7199 9.97822 14.5146 9.86047 14.2926 9.86047C14.1866 9.86047 14.0844 9.88734 13.9944 9.93622V8.19553H13.9943ZM18.0058 6.94553H13.9943V4.99378H18.0058V6.94553ZM30.7444 2.38197V10.2956C30.4908 10.6348 30.0876 10.8402 29.6599 10.8402C29.1816 10.8402 28.7339 10.5833 28.4918 10.1697C28.3797 9.97822 28.1744 9.86047 27.9524 9.86047C27.7305 9.86047 27.5253 9.97815 27.4131 10.1697C27.1709 10.5833 26.7233 10.8402 26.2449 10.8402C25.7666 10.8402 25.319 10.5833 25.0769 10.1697C24.9648 9.97822 24.7595 9.86047 24.5375 9.86047C24.3156 9.86047 24.1103 9.97815 23.9981 10.1697C23.7559 10.5833 23.3083 10.8402 22.83 10.8402C22.3517 10.8402 21.9041 10.5833 21.6619 10.1697C21.5497 9.97815 21.3444 9.86047 21.1225 9.86047C20.9005 9.86047 20.6952 9.97822 20.5831 10.1697C20.341 10.5833 19.8934 10.8402 19.4151 10.8402C19.3615 10.8402 19.3084 10.837 19.2558 10.8307V2.38197H30.7444ZM18.0058 2.38197V3.74378H13.9943V2.38197H18.0058ZM12.7443 2.38197V10.8307C12.6917 10.837 12.6386 10.8402 12.585 10.8402C12.1067 10.8402 11.6591 10.5833 11.4169 10.1697C11.3048 9.97822 11.0996 9.86047 10.8776 9.86047C10.6556 9.86047 10.4504 9.97815 10.3382 10.1697C10.096 10.5833 9.64837 10.8402 9.17006 10.8402C8.69175 10.8402 8.24413 10.5833 8.00194 10.1697C7.88975 9.97815 7.6845 9.86047 7.46256 9.86047C7.24056 9.86047 7.03531 9.97822 6.92319 10.1697C6.68106 10.5833 6.23344 10.8402 5.75513 10.8402C5.27681 10.8402 4.82919 10.5833 4.58706 10.1697C4.47494 9.97822 4.26969 9.86047 4.04769 9.86047C3.82575 9.86047 3.6205 9.97815 3.50831 10.1697C3.26612 10.5833 2.8185 10.8402 2.34019 10.8402C1.9125 10.8402 1.50937 10.6348 1.25569 10.2956V2.38197H12.7443ZM1.25 18.5532V15.6332C1.25369 15.6058 1.25563 15.5778 1.25563 15.5493V14.8731C1.59131 15.0275 1.96069 15.1115 2.34013 15.1115C2.97406 15.1115 3.57988 14.8771 4.04763 14.4715C4.51531 14.8771 5.12113 15.1115 5.75506 15.1115C6.389 15.1115 6.99481 14.8771 7.4625 14.4715C7.93031 14.8772 8.53606 15.1115 9.17 15.1115C9.80394 15.1115 10.4097 14.8772 10.8775 14.4715C11.3452 14.8771 11.951 15.1115 12.5849 15.1115C13.2189 15.1115 13.8246 14.8772 14.2924 14.4715C14.7601 14.8771 15.3659 15.1115 15.9999 15.1115C16.6338 15.1115 17.2396 14.8772 17.7074 14.4715C18.1751 14.8771 18.7809 15.1115 19.4148 15.1115C20.0487 15.1115 20.6546 14.8771 21.1222 14.4715C21.5901 14.8772 22.1958 15.1115 22.8298 15.1115C23.4637 15.1115 24.0694 14.8772 24.5373 14.4715C25.0049 14.8771 25.6108 15.1115 26.2447 15.1115C26.8786 15.1115 27.4844 14.8772 27.9522 14.4715C28.4199 14.8771 29.0257 15.1115 29.6596 15.1115C30.0391 15.1115 30.4084 15.0275 30.7441 14.8731V15.5493C30.7441 15.5778 30.7461 15.6058 30.7498 15.6332V18.5532H1.25Z" fill="black"/>
</svg>
